# Blender v2.76 (sub 0) OBJ File: ''
# www.blender.org
o Cube_Cube.001
v 1.000000 1.000000 -1.000000
v 1.000000 -1.000000 -1.000000
v 1.000000 1.000000 1.000000
v 1.000000 -1.000000 1.000000
v -1.000000 1.000000 -1.000000
v -1.000000 -1.000000 -1.000000
v -1.000000 1.000000 1.000000
v -1.000000 -1.000000 1.000000
vt 0.000000 1.000000
vt 1.000000 1.000000
vt 1.000000 0.000000
vt 1.000000 -1.000000
vt 0.000000 -1.000000
vt -1.000000 1.000000
vt -1.000000 0.000000
vt -1.000000 -1.000000
vt 0.000000 0.000000
vn 0.000000 -1.000000 0.000000
vn 0.000000 0.000000 -1.000000
vn -1.000000 0.000000 0.000000
vn 0.000000 1.000000 0.000000
vn 0.000000 0.000000 1.000000
vn 1.000000 0.000000 0.000000
s off
f 6/1/1 2/2/1 4/3/1
f 1/3/2 2/4/2 6/5/2
f 5/3/3 6/4/3 8/5/3
f 1/1/4 5/6/4 7/7/4
f 7/7/5 8/8/5 4/5/5
f 3/7/6 4/8/6 2/5/6
f 8/9/1 6/1/1 4/3/1
f 5/9/2 1/3/2 6/5/2
f 7/9/3 5/3/3 8/5/3
f 3/9/4 1/1/4 7/7/4
f 3/9/5 7/7/5 4/5/5
f 1/9/6 3/7/6 2/5/6
